<svg width="291" height="501" viewBox="0 0 291 501" fill="none" xmlns="http://www.w3.org/2000/svg">
<path d="M0.036499 125.67L72.3293 83.8473V166.894L0.036499 208.717V125.67Z" fill="#190602"/>
<path d="M0.036499 291.764L72.3293 249.941V332.988L1.82888 374.811L0.036499 291.764Z" fill="#190602"/>
<path d="M217.512 167.492L289.805 125.67V208.717L217.512 250.539V167.492Z" fill="#190602"/>
<path d="M218.11 333.586L290.403 292.361L291 374.811L218.707 416.633L218.11 333.586Z" fill="#190602"/>
<path d="M72.3293 166.894L144.323 208.591L72.4019 250.114L0.0363903 208.717L72.3293 166.894Z" fill="#190602"/>
<path d="M217.512 250.539L290.403 292.361L218.182 333.759L145.817 292.062L217.512 250.539Z" fill="#190602"/>
<path d="M144.848 41.8013L289.805 125.67L217.512 167.492L72.3292 83.8473L144.848 41.8013Z" fill="#190602"/>
<path d="M72.3292 332.989L218.707 416.633L147.012 458.232L1.82891 374.811L72.3292 332.989Z" fill="#190602"/>
</svg>
