<svg width="60" height="61" viewBox="0 0 60 61" fill="none" xmlns="http://www.w3.org/2000/svg">
<g clip-path="url(#clip0_667_59117)">
<path d="M59.1023 38.6976C55.0952 54.7692 38.8154 64.55 22.7401 60.5423C6.67158 56.5355 -3.11037 40.2566 0.898557 24.1863C4.90396 8.113 21.1837 -1.66858 37.254 2.33813C53.3281 6.34485 63.1095 22.6255 59.1019 38.6979L59.1022 38.6976H59.1023Z" fill="#F7931A"/>
<path d="M43.2308 27.1658C43.828 23.1734 40.7882 21.0274 36.6314 19.5958L37.9799 14.1878L34.6875 13.3675L33.3748 18.6331C32.5093 18.4173 31.6204 18.2139 30.7369 18.0122L32.0592 12.7119L28.7689 11.8916L27.4196 17.2978C26.7034 17.1348 25.9999 16.9736 25.3174 16.8038L25.3212 16.7868L20.7809 15.6531L19.9051 19.1692C19.9051 19.1692 22.3478 19.7291 22.2963 19.7635C23.6295 20.0962 23.8706 20.9787 23.8306 21.6782L22.2945 27.8391C22.3863 27.8625 22.5054 27.8962 22.6368 27.949C22.527 27.9217 22.4101 27.8919 22.2888 27.8629L20.1358 36.4935C19.9729 36.8985 19.5593 37.5063 18.6272 37.2755C18.6602 37.3233 16.2342 36.6784 16.2342 36.6784L14.5996 40.4467L18.8841 41.5147C19.6812 41.7145 20.4622 41.9236 21.2314 42.1203L19.869 47.5903L23.1576 48.4106L24.5068 42.9986C25.4052 43.2425 26.2771 43.4674 27.1306 43.6795L25.7859 49.0659L29.0784 49.8862L30.4407 44.4264C36.0549 45.4888 40.2763 45.0605 42.0532 39.983C43.485 35.8951 41.9819 33.5372 39.0283 31.9995C41.1796 31.5035 42.7999 30.0887 43.232 27.1662L43.231 27.1655L43.2308 27.1658ZM35.7085 37.7128C34.691 41.8008 27.8074 39.5909 25.5756 39.0368L27.3836 31.79C29.6152 32.3471 36.7719 33.4495 35.7087 37.7128H35.7085ZM36.7267 27.1065C35.7986 30.825 30.0692 28.9358 28.2107 28.4726L29.8498 21.9002C31.7084 22.3634 37.6936 23.228 36.727 27.1065H36.7267Z" fill="white"/>
</g>
<defs>
<clipPath id="clip0_667_59117">
<rect width="60" height="60" fill="white" transform="translate(0 0.507812)"/>
</clipPath>
</defs>
</svg>
