<svg width="60" height="61" viewBox="0 0 60 61" fill="none" xmlns="http://www.w3.org/2000/svg">
<circle cx="29.998" cy="30.2441" r="30" fill="white"/>
<g clip-path="url(#clip0_667_59703)">
<path d="M29.9942 9.24414L29.6992 10.2013V37.9723L29.9942 38.2534L43.4899 30.6336L29.9942 9.24414Z" fill="#343434"/>
<path d="M29.9941 9.24414L16.498 30.6336L29.9941 38.2534V24.7741V9.24414Z" fill="#8C8C8C"/>
<path d="M29.9944 40.694L29.8281 40.8877V50.7801L29.9944 51.2437L43.4983 33.0781L29.9944 40.694Z" fill="#3C3C3B"/>
<path d="M29.9941 51.2437V40.694L16.498 33.0781L29.9941 51.2437Z" fill="#8C8C8C"/>
<path d="M29.9941 38.2537L43.4898 30.6339L29.9941 24.7744V38.2537Z" fill="#141414"/>
<path d="M16.498 30.6339L29.9941 38.2537V24.7744L16.498 30.6339Z" fill="#393939"/>
</g>
<defs>
<clipPath id="clip0_667_59703">
<rect width="27" height="42" fill="white" transform="translate(16.498 9.24414)"/>
</clipPath>
</defs>
</svg>
