<svg width="60" height="60" viewBox="0 0 60 60" fill="none" xmlns="http://www.w3.org/2000/svg">
<circle cx="29.998" cy="29.9941" r="30" fill="#AAAAAA"/>
<path d="M42.785 9.83008L43.6196 12.9299L46.7194 13.7645L43.6196 14.5991L42.785 17.6989L41.9504 14.5991L38.8506 13.7645L41.9504 12.9299L42.785 9.83008Z" fill="white"/>
<path d="M13.7684 18.6826L14.603 21.7824L17.7028 22.617L14.603 23.4517L13.7684 26.5515L12.9338 23.4517L9.83398 22.617L12.9338 21.7824L13.7684 18.6826Z" fill="white"/>
<path fill-rule="evenodd" clip-rule="evenodd" d="M24.7122 15.2402H35.7778L41.3106 26.0599H19.1795L24.7122 15.2402ZM11.9254 29.0107H22.9909L28.5237 39.8304H6.39258L11.9254 29.0107ZM48.0729 29.0107H37.0073L31.4745 39.8304H53.6057L48.0729 29.0107Z" fill="white"/>
</svg>
