<svg width="40" height="40" viewBox="0 0 40 40" fill="none" xmlns="http://www.w3.org/2000/svg">
<path fill-rule="evenodd" clip-rule="evenodd" d="M40 0H0V40H40V0ZM8.97817 12.4222C10.8946 12.4222 12.4482 10.8686 12.4482 8.95217C12.4482 7.03575 10.8946 5.48218 8.97817 5.48218C7.06175 5.48218 5.50818 7.03575 5.50818 8.95217C5.50818 10.8686 7.06175 12.4222 8.97817 12.4222ZM15.6261 14.9866H21.377V17.6211C21.377 17.6211 22.9376 14.4999 27.1837 14.4999C30.9714 14.4999 34.1091 16.3659 34.1091 22.0533V34.0466H28.1496V23.5066C28.1496 20.1515 26.3584 19.7825 24.9935 19.7825C22.1608 19.7825 21.6758 22.2259 21.6758 23.9443V34.0466H15.6261V14.9866ZM12.0031 14.9866H5.9533V34.0466H12.0031V14.9866Z" fill="white"/>
</svg>
