<svg width="40" height="40" viewBox="0 0 40 40" fill="none" xmlns="http://www.w3.org/2000/svg">
<mask id="path-1-inside-1_8_589" fill="white">
<path fill-rule="evenodd" clip-rule="evenodd" d="M40 0H0V40H40V0ZM8.97817 12.4222C10.8946 12.4222 12.4482 10.8686 12.4482 8.95217C12.4482 7.03575 10.8946 5.48218 8.97817 5.48218C7.06175 5.48218 5.50818 7.03575 5.50818 8.95217C5.50818 10.8686 7.06175 12.4222 8.97817 12.4222ZM15.6261 14.9866H21.377V17.6211C21.377 17.6211 22.9376 14.4999 27.1837 14.4999C30.9714 14.4999 34.1091 16.3659 34.1091 22.0533V34.0466H28.1496V23.5066C28.1496 20.1515 26.3584 19.7825 24.9935 19.7825C22.1608 19.7825 21.6758 22.2259 21.6758 23.9443V34.0466H15.6261V14.9866ZM12.0031 14.9866H5.9533V34.0466H12.0031V14.9866Z"/>
</mask>
<path d="M0 0V-1H-1V0H0ZM40 0H41V-1H40V0ZM0 40H-1V41H0V40ZM40 40V41H41V40H40ZM21.377 14.9866H22.377V13.9866H21.377V14.9866ZM15.6261 14.9866V13.9866H14.6261V14.9866H15.6261ZM21.377 17.6211H20.377L22.2714 18.0683L21.377 17.6211ZM34.1091 34.0466V35.0466H35.1091V34.0466H34.1091ZM28.1496 34.0466H27.1496V35.0466H28.1496V34.0466ZM21.6758 34.0466V35.0466H22.6758V34.0466H21.6758ZM15.6261 34.0466H14.6261V35.0466H15.6261V34.0466ZM5.9533 14.9866V13.9866H4.9533V14.9866H5.9533ZM12.0031 14.9866H13.0031V13.9866H12.0031V14.9866ZM5.9533 34.0466H4.9533V35.0466H5.9533V34.0466ZM12.0031 34.0466V35.0466H13.0031V34.0466H12.0031ZM0 1H40V-1H0V1ZM1 40V0H-1V40H1ZM40 39H0V41H40V39ZM39 0V40H41V0H39ZM11.4482 8.95217C11.4482 10.3163 10.3423 11.4222 8.97817 11.4222V13.4222C11.4469 13.4222 13.4482 11.4209 13.4482 8.95217H11.4482ZM8.97817 6.48218C10.3423 6.48218 11.4482 7.58803 11.4482 8.95217H13.4482C13.4482 6.48346 11.4469 4.48218 8.97817 4.48218V6.48218ZM6.50818 8.95217C6.50818 7.58803 7.61403 6.48218 8.97817 6.48218V4.48218C6.50946 4.48218 4.50818 6.48346 4.50818 8.95217H6.50818ZM8.97817 11.4222C7.61403 11.4222 6.50818 10.3163 6.50818 8.95217H4.50818C4.50818 11.4209 6.50946 13.4222 8.97817 13.4222V11.4222ZM21.377 13.9866H15.6261V15.9866H21.377V13.9866ZM22.377 17.6211V14.9866H20.377V17.6211H22.377ZM27.1837 13.4999C24.7915 13.4999 23.1168 14.3865 22.0416 15.2976C21.5095 15.7484 21.1289 16.2006 20.8782 16.5455C20.7526 16.7184 20.6586 16.8657 20.5938 16.9743C20.5613 17.0287 20.536 17.0735 20.5176 17.1073C20.5084 17.1242 20.5009 17.1383 20.4951 17.1494C20.4922 17.155 20.4897 17.1599 20.4876 17.164C20.4865 17.166 20.4856 17.1679 20.4848 17.1695C20.4843 17.1703 20.4839 17.1711 20.4836 17.1718C20.4834 17.1722 20.4831 17.1727 20.483 17.1729C20.4828 17.1734 20.4826 17.1739 21.377 17.6211C22.2714 18.0683 22.2712 18.0688 22.271 18.0692C22.2709 18.0694 22.2707 18.0698 22.2705 18.0701C22.2703 18.0706 22.27 18.0711 22.2698 18.0716C22.2693 18.0725 22.269 18.0732 22.2687 18.0737C22.2681 18.0748 22.2679 18.0752 22.2681 18.0749C22.2684 18.0742 22.2702 18.0708 22.2735 18.0648C22.28 18.0529 22.2924 18.0307 22.3109 17.9997C22.348 17.9377 22.4091 17.8411 22.4961 17.7213C22.6708 17.481 22.9456 17.153 23.3345 16.8235C24.1011 16.174 25.3297 15.4999 27.1837 15.4999V13.4999ZM35.1091 22.0533C35.1091 19.0285 34.2706 16.8369 32.7502 15.4138C31.2426 14.0026 29.2267 13.4999 27.1837 13.4999V15.4999C28.9284 15.4999 30.3752 15.9302 31.3834 16.8739C32.3788 17.8056 33.1091 19.3907 33.1091 22.0533H35.1091ZM35.1091 34.0466V22.0533H33.1091V34.0466H35.1091ZM28.1496 35.0466H34.1091V33.0466H28.1496V35.0466ZM27.1496 23.5066V34.0466H29.1496V23.5066H27.1496ZM24.9935 20.7825C25.6195 20.7825 26.1071 20.8766 26.4459 21.1569C26.7497 21.4082 27.1496 21.9956 27.1496 23.5066H29.1496C29.1496 21.6625 28.6539 20.3879 27.7208 19.6159C26.8228 18.873 25.7323 18.7825 24.9935 18.7825V20.7825ZM22.6758 23.9443C22.6758 23.1461 22.7944 22.3166 23.139 21.7179C23.435 21.2038 23.9331 20.7825 24.9935 20.7825V18.7825C23.2212 18.7825 22.0604 19.5829 21.4058 20.7201C20.7998 21.7726 20.6758 23.0241 20.6758 23.9443H22.6758ZM22.6758 34.0466V23.9443H20.6758V34.0466H22.6758ZM15.6261 35.0466H21.6758V33.0466H15.6261V35.0466ZM14.6261 14.9866V34.0466H16.6261V14.9866H14.6261ZM5.9533 15.9866H12.0031V13.9866H5.9533V15.9866ZM6.9533 34.0466V14.9866H4.9533V34.0466H6.9533ZM12.0031 33.0466H5.9533V35.0466H12.0031V33.0466ZM11.0031 14.9866V34.0466H13.0031V14.9866H11.0031Z" fill="white" mask="url(#path-1-inside-1_8_589)"/>
</svg>
