<svg width="40" height="40" viewBox="0 0 40 40" fill="none" xmlns="http://www.w3.org/2000/svg">
<path fill-rule="evenodd" clip-rule="evenodd" d="M40 0H0V40H40V0ZM6.46058 18.6434L30.5424 9.35497C31.6423 8.85578 32.704 9.61933 32.2841 11.3027L28.1831 30.628C27.8968 32.0014 27.0668 32.33 25.9171 31.6957L19.6697 27.0798L19.5533 27.193C18.1334 28.5735 16.8823 29.7899 16.6668 30.0008L16.6438 30.0233C16.3063 30.3533 16.0277 30.6257 15.4166 30.6257C14.7822 30.6257 14.7293 30.438 14.6019 29.986C14.5666 29.861 14.5257 29.7158 14.4652 29.5487L12.1671 22.503L6.161 20.6284C4.82671 20.2196 4.81696 19.3028 6.46058 18.6434ZM26.6474 13.5312L13.1097 22.0723L15.3909 29.0661L15.8423 24.2521L27.4341 13.7934C27.9429 13.3417 27.3232 13.1214 26.6474 13.5312Z" fill="white"/>
</svg>
