<svg width="40" height="40" viewBox="0 0 40 40" fill="none" xmlns="http://www.w3.org/2000/svg">
<mask id="path-1-inside-1_8_583" fill="white">
<path fill-rule="evenodd" clip-rule="evenodd" d="M40 0H0V40H40V0ZM6.46058 18.6434L30.5424 9.35497C31.6423 8.85578 32.704 9.61933 32.2841 11.3027L28.1831 30.628C27.8968 32.0014 27.0668 32.33 25.9171 31.6957L19.6697 27.0798L19.5533 27.193C18.1334 28.5735 16.8823 29.7899 16.6668 30.0008L16.6438 30.0233C16.3063 30.3533 16.0277 30.6257 15.4166 30.6257C14.7822 30.6257 14.7293 30.438 14.6019 29.986C14.5666 29.861 14.5257 29.7158 14.4652 29.5487L12.1671 22.503L6.161 20.6284C4.82671 20.2196 4.81696 19.3028 6.46058 18.6434ZM26.6474 13.5312L13.1097 22.0723L15.3909 29.0661L15.8423 24.2521L27.4341 13.7934C27.9429 13.3417 27.3232 13.1214 26.6474 13.5312Z"/>
</mask>
<path d="M0 0V-1H-1V0H0ZM40 0H41V-1H40V0ZM0 40H-1V41H0V40ZM40 40V41H41V40H40ZM30.5424 9.35497L30.9023 10.288L30.9293 10.2776L30.9557 10.2656L30.5424 9.35497ZM6.46058 18.6434L6.10069 17.7103L6.08822 17.7153L6.46058 18.6434ZM32.2841 11.3027L31.3138 11.0606L31.3095 11.0778L31.3059 11.0951L32.2841 11.3027ZM28.1831 30.628L27.2049 30.4204L27.2041 30.424L28.1831 30.628ZM25.9171 31.6957L25.3229 32.5L25.3761 32.5393L25.4341 32.5713L25.9171 31.6957ZM19.6697 27.0798L20.2639 26.2755L19.5812 25.7711L18.9726 26.3628L19.6697 27.0798ZM19.5533 27.193L20.2504 27.9099L20.2504 27.9099L19.5533 27.193ZM16.6668 30.0008L17.3658 30.7159L17.3662 30.7155L16.6668 30.0008ZM16.6438 30.0233L15.9448 29.3081L15.9447 29.3083L16.6438 30.0233ZM14.6019 29.986L13.6394 30.2574H13.6394L14.6019 29.986ZM14.4652 29.5487L13.5144 29.8588L13.5195 29.8741L13.525 29.8893L14.4652 29.5487ZM12.1671 22.503L13.1178 22.1929L12.9577 21.7022L12.465 21.5484L12.1671 22.503ZM6.161 20.6284L6.45894 19.6738L6.45392 19.6722L6.161 20.6284ZM13.1097 22.0723L12.5761 21.2266L11.9175 21.6421L12.159 22.3824L13.1097 22.0723ZM26.6474 13.5312L26.1289 12.6762L26.1213 12.6808L26.1138 12.6855L26.6474 13.5312ZM15.3909 29.0661L14.4402 29.3762L16.3866 29.1595L15.3909 29.0661ZM15.8423 24.2521L15.1724 23.5097L14.883 23.7708L14.8466 24.1588L15.8423 24.2521ZM27.4341 13.7934L26.7703 13.0455L26.7642 13.0509L27.4341 13.7934ZM0 1H40V-1H0V1ZM1 40V0H-1V40H1ZM40 39H0V41H40V39ZM39 0V40H41V0H39ZM30.1826 8.42197L6.10072 17.7104L6.82045 19.5764L30.9023 10.288L30.1826 8.42197ZM33.2544 11.5447C33.5149 10.5 33.3764 9.46665 32.6784 8.79156C31.9664 8.10299 30.961 8.06683 30.1292 8.44437L30.9557 10.2656C31.0896 10.2048 31.1815 10.2008 31.2265 10.2058C31.2667 10.2103 31.2804 10.2218 31.288 10.2292C31.2908 10.2319 31.4731 10.422 31.3138 11.0606L33.2544 11.5447ZM29.1613 30.8356L33.2623 11.5102L31.3059 11.0951L27.2049 30.4204L29.1613 30.8356ZM25.4341 32.5713C26.1256 32.9528 26.9781 33.1902 27.785 32.8263C28.5972 32.46 28.9909 31.6535 29.1621 30.8321L27.2041 30.424C27.0891 30.9759 26.9246 31.0203 26.9628 31.0031C26.9956 30.9883 26.8583 31.0729 26.4002 30.8201L25.4341 32.5713ZM19.0754 27.8841L25.3229 32.5L26.5114 30.8914L20.2639 26.2755L19.0754 27.8841ZM20.2504 27.9099L20.3668 27.7968L18.9726 26.3628L18.8562 26.476L20.2504 27.9099ZM17.3662 30.7155C17.5802 30.5061 18.8293 29.2917 20.2504 27.9099L18.8562 26.476C17.4375 27.8553 16.1844 29.0737 15.9674 29.286L17.3662 30.7155ZM17.3428 30.7384L17.3658 30.7159L15.9678 29.2856L15.9448 29.3081L17.3428 30.7384ZM15.4166 31.6257C15.8884 31.6257 16.2858 31.5159 16.6351 31.3129C16.9496 31.1302 17.191 30.8868 17.3429 30.7383L15.9447 29.3083C15.759 29.4898 15.6924 29.5476 15.6304 29.5836C15.6033 29.5993 15.5558 29.6257 15.4166 29.6257V31.6257ZM13.6394 30.2574C13.6667 30.3542 13.709 30.5089 13.7666 30.6513C13.829 30.8058 13.9343 31.0134 14.129 31.1991C14.5362 31.5873 15.0585 31.6257 15.4166 31.6257V29.6257C15.3609 29.6257 15.3237 29.6236 15.3006 29.6214C15.2774 29.6191 15.2753 29.6174 15.288 29.6207C15.3015 29.6241 15.3338 29.6338 15.3761 29.6558C15.4202 29.6788 15.4663 29.7107 15.5093 29.7517C15.5955 29.8339 15.6241 29.9098 15.6209 29.902C15.6193 29.8981 15.6138 29.8835 15.6033 29.8493C15.5925 29.8143 15.581 29.7738 15.5643 29.7146L13.6394 30.2574ZM13.525 29.8893C13.5718 30.0185 13.6041 30.1322 13.6394 30.2574L15.5644 29.7146C15.5292 29.5898 15.4796 29.413 15.4054 29.2081L13.525 29.8893ZM11.2164 22.8131L13.5144 29.8588L15.4159 29.2386L13.1178 22.1929L11.2164 22.8131ZM5.86305 21.583L11.8691 23.4576L12.465 21.5484L6.45894 19.6738L5.86305 21.583ZM6.08822 17.7153C5.61208 17.9063 5.19329 18.1397 4.87045 18.425C4.55408 18.7047 4.25127 19.1074 4.19902 19.6305C4.14304 20.191 4.39625 20.6532 4.72734 20.9657C5.04137 21.2621 5.44984 21.4564 5.86807 21.5845L6.45392 19.6722C6.33566 19.636 6.24872 19.5991 6.1881 19.5673C6.12659 19.535 6.10229 19.5133 6.10019 19.5113C6.0987 19.5099 6.12754 19.5366 6.15407 19.598C6.18268 19.6643 6.19745 19.7459 6.18912 19.8293C6.1731 19.9896 6.09264 20.014 6.19501 19.9235C6.29092 19.8387 6.48727 19.7102 6.83295 19.5715L6.08822 17.7153ZM13.6433 22.918L27.181 14.377L26.1138 12.6855L12.5761 21.2266L13.6433 22.918ZM16.3416 28.756L14.0604 21.7622L12.159 22.3824L14.4402 29.3762L16.3416 28.756ZM14.8466 24.1588L14.3953 28.9728L16.3866 29.1595L16.8379 24.3455L14.8466 24.1588ZM26.7642 13.0509L15.1724 23.5097L16.5122 24.9946L28.104 14.5358L26.7642 13.0509ZM27.166 14.3863C27.2455 14.3381 27.3047 14.3202 27.3289 14.3152C27.3722 14.3063 27.301 14.3333 27.1605 14.2851C27.0845 14.2591 26.9459 14.1953 26.8217 14.0475C26.6841 13.884 26.6139 13.6746 26.6216 13.4671C26.6285 13.2807 26.695 13.1551 26.7273 13.1038C26.761 13.0501 26.7851 13.0323 26.7703 13.0455L28.098 14.5412C28.2815 14.3783 28.6016 14.0408 28.6202 13.5414C28.6308 13.2561 28.5366 12.9793 28.3523 12.7602C28.1814 12.557 27.9734 12.4496 27.8095 12.3934C27.4932 12.2849 27.1722 12.3055 26.9252 12.3564C26.659 12.4112 26.3872 12.5195 26.1289 12.6762L27.166 14.3863Z" fill="white" mask="url(#path-1-inside-1_8_583)"/>
</svg>
