<svg width="40" height="40" viewBox="0 0 40 40" fill="none" xmlns="http://www.w3.org/2000/svg">
<mask id="path-1-inside-1_8_586" fill="white">
<path fill-rule="evenodd" clip-rule="evenodd" d="M40 0H0V40H40V0ZM33.0919 6L22.6665 17.8575L34 34H25.6616L18.0269 23.1273L8.4696 34H6L16.9321 21.5672L6 6H14.3384L21.5661 16.2936L30.6223 6H33.0919ZM13.1549 7.82221H9.36093L26.8255 32.2673H30.6204L13.1549 7.82221Z"/>
</mask>
<path d="M0 0V-1.2574H-1.2574V0H0ZM40 0H41.2574V-1.2574H40V0ZM0 40H-1.2574V41.2574H0V40ZM40 40V41.2574H41.2574V40H40ZM22.6665 17.8575L21.7222 17.0272L21.0689 17.7702L21.6374 18.58L22.6665 17.8575ZM33.0919 6L34.0362 6.83026L35.8717 4.7426H33.0919V6ZM34 34V35.2574H36.4192L35.0291 33.2775L34 34ZM25.6616 34L24.6326 34.7226L25.0081 35.2574H25.6616V34ZM18.0269 23.1273L19.056 22.4047L18.1376 21.0969L17.0825 22.2972L18.0269 23.1273ZM8.4696 34V35.2574H9.03845L9.41401 34.8302L8.4696 34ZM6 34L5.05572 33.1697L3.22002 35.2574H6V34ZM16.9321 21.5672L17.8764 22.3975L18.5298 21.6543L17.9611 20.8445L16.9321 21.5672ZM6 6V4.7426H3.5805L4.97099 6.72263L6 6ZM14.3384 6L15.3675 5.27744L14.9919 4.7426H14.3384V6ZM21.5661 16.2936L20.5371 17.0161L21.455 18.3234L22.5102 17.1241L21.5661 16.2936ZM30.6223 6V4.7426H30.0537L29.6782 5.16944L30.6223 6ZM9.36093 7.82221V6.56481H6.91726L8.33782 8.55317L9.36093 7.82221ZM13.1549 7.82221L14.178 7.09124L13.8019 6.56481H13.1549V7.82221ZM26.8255 32.2673L25.8024 32.9983L26.1785 33.5247H26.8255V32.2673ZM30.6204 32.2673V33.5247H33.0642L31.6435 31.5363L30.6204 32.2673ZM0 1.2574H40V-1.2574H0V1.2574ZM1.2574 40V0H-1.2574V40H1.2574ZM40 38.7426H0V41.2574H40V38.7426ZM38.7426 0V40H41.2574V0H38.7426ZM23.6108 18.6877L34.0362 6.83026L32.1476 5.16974L21.7222 17.0272L23.6108 18.6877ZM35.0291 33.2775L23.6956 17.1349L21.6374 18.58L32.9709 34.7225L35.0291 33.2775ZM25.6616 35.2574H34V32.7426H25.6616V35.2574ZM16.9979 23.8499L24.6326 34.7226L26.6906 33.2774L19.056 22.4047L16.9979 23.8499ZM9.41401 34.8302L18.9713 23.9575L17.0825 22.2972L7.52519 33.1698L9.41401 34.8302ZM6 35.2574H8.4696V32.7426H6V35.2574ZM15.9879 20.7369L5.05572 33.1697L6.94428 34.8303L17.8764 22.3975L15.9879 20.7369ZM4.97099 6.72263L15.9031 22.2898L17.9611 20.8445L7.02901 5.27737L4.97099 6.72263ZM14.3384 4.7426H6V7.2574H14.3384V4.7426ZM22.5952 15.571L15.3675 5.27744L13.3093 6.72256L20.5371 17.0161L22.5952 15.571ZM29.6782 5.16944L20.6221 15.463L22.5102 17.1241L31.5663 6.83056L29.6782 5.16944ZM33.0919 4.7426H30.6223V7.2574H33.0919V4.7426ZM9.36093 9.07962H13.1549V6.56481H9.36093V9.07962ZM27.8486 31.5364L10.384 7.09126L8.33782 8.55317L25.8024 32.9983L27.8486 31.5364ZM30.6204 31.0099H26.8255V33.5247H30.6204V31.0099ZM12.1318 8.55319L29.5973 32.9983L31.6435 31.5363L14.178 7.09124L12.1318 8.55319Z" fill="white" mask="url(#path-1-inside-1_8_586)"/>
</svg>
